<?xml version="1.0" encoding="UTF-8"?>
<svg width="124px" height="19px" viewBox="0 0 124 19" version="1.1" xmlns="http://www.w3.org/2000/svg" xmlns:xlink="http://www.w3.org/1999/xlink">
    <!-- Generator: Sketch 51 (57462) - http://www.bohemiancoding.com/sketch -->
    <title>SPACER</title>
    <desc>Created with Sketch.</desc>
    <defs>
        <path d="M62.345801,54.5528 C60.9177939,54.5528 59.5318077,54.3764018 58.187801,54.0236 C56.8437943,53.6707982 55.7518052,53.2004029 54.911801,52.6124 L56.549801,48.9332 C57.339405,49.4540026 58.2549958,49.8739984 59.296601,50.1932 C60.3382062,50.5124016 61.362996,50.672 62.371001,50.672 C64.2862106,50.672 65.243801,50.1932048 65.243801,49.2356 C65.243801,48.7315975 64.9708037,48.3578012 64.424801,48.1142 C63.8787983,47.8705988 63.0010071,47.6144013 61.791401,47.3456 C60.4641944,47.0599986 59.3554055,46.7534016 58.465001,46.4258 C57.5745966,46.0981984 56.8102042,45.5732036 56.171801,44.8508 C55.5333978,44.1283964 55.214201,43.1540061 55.214201,41.9276 C55.214201,40.8523946 55.5081981,39.8822043 56.096201,39.017 C56.6842039,38.1517957 57.5619952,37.4672025 58.729601,36.9632 C59.8972068,36.4591975 61.3293925,36.2072 63.026201,36.2072 C64.1854068,36.2072 65.3277954,36.3373987 66.453401,36.5978 C67.5790066,36.8582013 68.5701967,37.2403975 69.427001,37.7444 L67.889801,41.4488 C66.2097926,40.5415955 64.5802089,40.088 63.001001,40.088 C62.0097961,40.088 61.2874033,40.2349985 60.833801,40.529 C60.3801987,40.8230015 60.153401,41.2051976 60.153401,41.6756 C60.153401,42.1460024 60.4221983,42.4987988 60.959801,42.734 C61.4974037,42.9692012 62.362595,43.2127987 63.555401,43.4648 C64.8994077,43.7504014 66.0123966,44.0569984 66.894401,44.3846 C67.7764054,44.7122016 68.5407978,45.2329964 69.187601,45.947 C69.8344042,46.6610036 70.157801,47.6311939 70.157801,48.8576 C70.157801,49.9160053 69.8638039,50.8735957 69.275801,51.7304 C68.6877981,52.5872043 67.8058069,53.2717974 66.629801,53.7842 C65.4537951,54.2966026 64.0258094,54.5528 62.345801,54.5528 Z M83.8918006,36.56 C85.4878086,36.56 86.8737947,36.8245974 88.0498006,37.3538 C89.2258065,37.8830026 90.1329974,38.6389951 90.7714006,39.6218 C91.4098038,40.6046049 91.7290006,41.7595934 91.7290006,43.0868 C91.7290006,44.4140066 91.4098038,45.5647951 90.7714006,46.5392 C90.1329974,47.5136049 89.2258065,48.2653974 88.0498006,48.7946 C86.8737947,49.3238026 85.4878086,49.5884 83.8918006,49.5884 L80.8174006,49.5884 L80.8174006,54.2 L75.8278006,54.2 L75.8278006,36.56 L83.8918006,36.56 Z M83.5894006,45.6572 C84.6142057,45.6572 85.386998,45.4346022 85.9078006,44.9894 C86.4286032,44.5441978 86.6890006,43.9100041 86.6890006,43.0868 C86.6890006,42.2635959 86.4286032,41.6252023 85.9078006,41.1716 C85.386998,40.7179977 84.6142057,40.4912 83.5894006,40.4912 L80.8174006,40.4912 L80.8174006,45.6572 L83.5894006,45.6572 Z M108.4618,50.7728 L101.0026,50.7728 L99.6166002,54.2 L94.5262002,54.2 L102.313,36.56 L107.227,36.56 L115.039,54.2 L109.8478,54.2 L108.4618,50.7728 Z M107.0002,47.0936 L104.7322,41.4488 L102.4642,47.0936 L107.0002,47.0936 Z M127.8658,54.5528 C126.017791,54.5528 124.358808,54.1622039 122.8888,53.381 C121.418793,52.5997961 120.263804,51.512007 119.4238,50.1176 C118.583796,48.723193 118.1638,47.1440088 118.1638,45.38 C118.1638,43.6159912 118.583796,42.036807 119.4238,40.6424 C120.263804,39.247993 121.418793,38.1602039 122.8888,37.379 C124.358808,36.5977961 126.017791,36.2072 127.8658,36.2072 C129.478608,36.2072 130.931794,36.4927971 132.2254,37.064 C133.519007,37.6352029 134.594196,38.4583946 135.451,39.5336 L132.2758,42.4064 C131.133395,41.0287931 129.747408,40.34 128.1178,40.34 C127.160195,40.34 126.307604,40.5499979 125.56,40.97 C124.812397,41.3900021 124.232802,41.9821962 123.8212,42.7466 C123.409598,43.5110038 123.2038,44.388795 123.2038,45.38 C123.2038,46.371205 123.409598,47.2489962 123.8212,48.0134 C124.232802,48.7778038 124.812397,49.3699979 125.56,49.79 C126.307604,50.2100021 127.160195,50.42 128.1178,50.42 C129.747408,50.42 131.133395,49.7312069 132.2758,48.3536 L135.451,51.2264 C134.594196,52.3016054 133.519007,53.1247971 132.2254,53.696 C130.931794,54.2672029 129.478608,54.5528 127.8658,54.5528 Z M155.2078,50.3444 L155.2078,54.2 L141.0454,54.2 L141.0454,36.56 L154.8802,36.56 L154.8802,40.4156 L145.9846,40.4156 L145.9846,43.3892 L153.8218,43.3892 L153.8218,47.1188 L145.9846,47.1188 L145.9846,50.3444 L155.2078,50.3444 Z M169.067799,49.5128 L166.346199,49.5128 L166.346199,54.2 L161.356599,54.2 L161.356599,36.56 L169.420599,36.56 C171.016607,36.56 172.402594,36.8245974 173.578599,37.3538 C174.754605,37.8830026 175.661796,38.6389951 176.300199,39.6218 C176.938603,40.6046049 177.257799,41.7595934 177.257799,43.0868 C177.257799,44.3636064 176.959602,45.4765953 176.363199,46.4258 C175.766796,47.3750047 174.914205,48.1183973 173.805399,48.656 L177.610599,54.2 L172.268199,54.2 L169.067799,49.5128 Z M172.217799,43.0868 C172.217799,42.2635959 171.957402,41.6252023 171.436599,41.1716 C170.915797,40.7179977 170.143005,40.4912 169.118199,40.4912 L166.346199,40.4912 L166.346199,45.6572 L169.118199,45.6572 C170.143005,45.6572 170.915797,45.4346022 171.436599,44.9894 C171.957402,44.5441978 172.217799,43.9100041 172.217799,43.0868 Z" id="path-1"></path>
    </defs>
    <g id="Page-1" stroke="none" stroke-width="1" fill="none" fill-rule="evenodd">
        <g id="Desktop-Copy" transform="translate(-54.000000, -36.000000)">
            <g id="SPACER">
                <use fill="#FFFFFF" xlink:href="#path-1"></use>
                <use fill="#1E3D4A" xlink:href="#path-1"></use>
            </g>
        </g>
    </g>
</svg>